<svg width="747" height="313" xmlns="http://www.w3.org/2000/svg"><g fill="none" fill-rule="evenodd"><path d="M379.257 231.274c-42.59 0-79.677-15.312-98.984-37.934 14.611 40.555 53.41 69.55 98.984 69.55s84.374-28.995 98.985-69.55c-19.307 22.622-56.394 37.934-98.985 37.934m0-147.234c42.59 0 79.678 15.312 98.985 37.934-14.61-40.554-53.411-69.55-98.985-69.55-45.573 0-84.373 28.996-98.984 69.55 19.307-22.622 56.395-37.933 98.984-37.933" fill="#E46E2E"/><path d="M299.457 285.865c-9.132.39-16.852-6.695-17.243-15.827-.392-9.131 6.694-16.85 15.826-17.243 9.132-.39 16.852 6.695 17.243 15.827.391 9.131-6.694 16.852-15.826 17.243zm-12.7-215.5c-5.707.244-10.532-4.184-10.777-9.891-.244-5.708 4.184-10.533 9.892-10.778 5.707-.245 10.533 4.184 10.777 9.892.245 5.707-4.184 10.533-9.892 10.777zM450.982 58.11c-8.863.38-16.356-6.497-16.735-15.36-.38-8.863 6.497-16.356 15.36-16.735 8.863-.38 16.355 6.497 16.734 15.36.38 8.863-6.497 16.355-15.359 16.735z" fill="#767474"/><path d="M258.91 171.62c0 9.531-.745 12.654-2.732 14.954-1.738 1.89-4.636 2.794-7.948 3.04l.745 5.67c3.891 0 9.19-1.315 12.42-4.52 3.559-3.614 4.8-8.627 4.8-16.35V138.34h-7.285v33.279m54.395-4.354c0 4.108.082 7.724.331 10.846h-6.458l-.414-6.491h-.165c-1.905 3.204-6.128 7.394-13.247 7.394-6.292 0-13.827-3.45-13.827-17.419v-23.254h7.287v22.021c0 7.56 2.317 12.655 8.94 12.655 4.885 0 8.28-3.37 9.605-6.574.414-1.068.662-2.383.662-3.698v-24.404h7.286v28.924m13.745-15.941c0-5.094-.166-9.204-.332-12.983h6.54l.332 6.82h.166c2.98-4.848 7.7-7.724 14.24-7.724 9.686 0 16.972 8.135 16.972 20.214 0 14.297-8.776 21.363-18.214 21.363-5.299 0-9.935-2.3-12.336-6.244h-.165v21.61h-7.204v-43.056zm7.203 10.6c0 1.068.165 2.054.33 2.958 1.325 5.012 5.713 8.463 10.929 8.463 7.7 0 12.17-6.245 12.17-15.366 0-7.97-4.222-14.79-11.921-14.79-4.968 0-9.604 3.534-11.012 8.956-.248.904-.496 1.972-.496 2.959v6.82zm43.631-23.583l8.776 23.5c.911 2.63 1.904 5.752 2.567 8.135h.165c.746-2.383 1.574-5.423 2.567-8.299l7.948-23.336h7.7l-10.929 28.349c-5.216 13.639-8.776 20.624-13.743 24.896-3.56 3.123-7.12 4.355-8.941 4.684l-1.822-6.08c1.822-.575 4.222-1.726 6.375-3.534 1.987-1.561 4.47-4.355 6.127-8.052.33-.74.579-1.315.579-1.726 0-.411-.165-.985-.497-1.89l-14.82-36.647h7.948m48.883-11.421v11.421H437.2v5.506h-10.432v21.445c0 4.93 1.408 7.725 5.464 7.725 1.904 0 3.312-.247 4.223-.493l.331 5.422c-1.408.576-3.643.987-6.457.987-3.395 0-6.128-1.068-7.866-3.04-2.07-2.138-2.815-5.67-2.815-10.354v-21.692h-6.209v-5.506h6.209v-9.532l7.12-1.89m23.844 32.621c.165 9.779 6.458 13.805 13.743 13.805 5.216 0 8.362-.904 11.094-2.055l1.242 5.177c-2.567 1.15-6.954 2.466-13.33 2.466-12.335 0-19.704-8.053-19.704-20.05 0-11.996 7.12-21.446 18.794-21.446 13.081 0 16.558 11.422 16.558 18.734 0 1.48-.165 2.63-.248 3.37h-28.15zm21.36-5.176c.083-4.601-1.904-11.75-10.1-11.75-7.369 0-10.598 6.738-11.177 11.75h21.277zm17.718-3.616c0-4.683-.082-8.71-.331-12.407h6.375l.249 7.806h.33c1.822-5.34 6.21-8.71 11.095-8.71.828 0 1.408.082 2.07.247v6.82c-.745-.164-1.491-.246-2.484-.246-5.134 0-8.776 3.861-9.77 9.284-.165.986-.331 2.137-.331 3.369v21.2h-7.202v-27.363" fill="#313940"/></g></svg>